<?xml version="1.0" encoding="utf-8"?>
<!-- Generator: Adobe Illustrator 24.3.0, SVG Export Plug-In . SVG Version: 6.00 Build 0)  -->
<svg version="1.1" id="Layer_2" xmlns="http://www.w3.org/2000/svg" xmlns:xlink="http://www.w3.org/1999/xlink" x="0px" y="0px"
	 viewBox="0 0 595.3 222.2" style="enable-background:new 0 0 595.3 222.2;" xml:space="preserve">
<style type="text/css">
	.st0{fill:#212951;}
	.st1{fill:#2EABE3;}
</style>
<g>
	<path class="st0" d="M48,129.8h-8c-4.6,0-7.7-2.3-9.6-7c-1.4,2.2-4.2,3.4-8.1,3.4c-6.8,0-11.2-5.9-11.2-13.8c0-8.5,4.3-14,11.8-14
		c0-0.1,5.1-0.1,15.2-0.1v17.9c0,3.8,1.9,5.8,5.8,5.8H48V129.8z M24.6,93.1h-7.1v-6.6h7.1V93.1z M29.9,111.8v-7.5h-5.2
		c-3.2,0-5.6,3.6-5.6,8c0,4,2.3,7.3,5.5,7.3C27.9,119.6,29.9,116.5,29.9,111.8z M35.3,93.1h-7.1v-6.6h7.1V93.1z"/>
	<path class="st0" d="M58.7,129.8H46.5v-7.6h12.2V129.8z"/>
	<path class="st0" d="M63.6,139.3h-7.1v-6.6h7.1V139.3z M83.5,129.8H57.9v-7.6h5.2c2.7,0,4-1.8,4-5.5V104h8v12.4
		c0,2.1-0.3,4-0.9,5.8h9.3V129.8z M74.3,139.3h-7.1v-6.6h7.1V139.3z"/>
	<path class="st0" d="M121.3,129.8h-9.1c-2.3,3.2-5.9,4.9-10.6,4.9c-4.8,0-8.4-1.7-10.8-4.9H82v-7.6h6.4c0-8.2,4.7-13.3,12.9-13.3
		c8.3,0,13.3,5,13.3,13.3h6.7V129.8z M106.7,122c0-4.5-1.7-6.8-5.1-6.8H101c-2.9,0-4.8,2.7-4.8,6.4c0,3.8,1.9,6.5,5.3,6.5
		C104.7,128.2,106.7,125.8,106.7,122z"/>
	<path class="st0" d="M153,116.8c0,3.9-1.2,7-3.6,9.4c-2.3,2.4-5.5,3.6-9.5,3.6h-20.4v-7.6h8.1c-0.6-1.7-0.9-3.4-0.9-5.3
		c0-7.9,5-12.9,12.9-12.9c4,0,7.2,1.1,9.7,3.4C151.8,109.6,153,112.8,153,116.8z M137.7,99.7h-7.1v-6.5h7.1V99.7z M145.1,117.1
		c0-4.5-1.7-6.7-5.1-6.7h-0.6c-1.6,0-2.8,0.7-3.8,2.1c-0.7,1.2-1.1,2.7-1.1,4.3c0,1.9,0.4,3.4,1.3,4.6c1,1.4,2.3,2.1,4.1,2.1
		c1.7,0,3-0.6,3.9-1.9C144.7,120.2,145.1,118.8,145.1,117.1z M148.4,99.7h-7.1v-6.5h7.1V99.7z"/>
	<path class="st0" d="M181.8,129.8H173c-1.3,6.3-6.4,9.4-15.5,9.4v-6.4c5.2,0,7.9-2.5,7.9-7.5V104h8v18.2h8.4V129.8z"/>
	<path class="st0" d="M196.7,118.8c0,3-0.9,5.5-2.5,7.5c-1.9,2.3-4.5,3.5-7.9,3.5h-7.5v-7.6h5.9c2.7,0,4-1.9,4-5.6V93.1h8V118.8z"/>
	<path class="st0" d="M210.2,129.8h-8V93.1h8V129.8z"/>
	<path class="st0" d="M271.6,129.8h-0.4c-4.6,0-8-1.1-10.3-3.4c-1.8,7.7-9.9,12.8-19.1,12.8c-11.4,0-20.4-8.4-20.4-19.4V113h8v6.1
		c0,7.6,4.5,12.8,12.6,12.8c6.2,0,12-3.9,12-9.2c0-3-2.6-5-5.3-5c-0.5,0-0.9,0.1-1.4,0.2v-6.9c0-0.1,1.1-0.1,3.5-0.1
		c5.8,0,10,2.6,12.8,7.9c1.4,2.6,3.4,3.5,6.8,3.5h1.3V129.8z M240.9,151.1h-7.1v-6.5h7.1V151.1z M251.6,151.1h-7.1v-6.5h7.1V151.1z"
		/>
	<path class="st0" d="M283.1,129.8h-12.2v-7.6h12.2V129.8z"/>
	<path class="st0" d="M294.4,129.8h-12.2v-7.6h12.2V129.8z"/>
	<path class="st0" d="M305.6,129.8h-12.2v-7.6h12.2V129.8z"/>
	<path class="st0" d="M316.9,129.8h-12.2v-7.6h12.2V129.8z"/>
	<path class="st0" d="M328.2,129.8H316v-7.6h12.2V129.8z"/>
	<path class="st0" d="M339.5,129.8h-12.2v-7.6h12.2V129.8z"/>
	<path class="st0" d="M350.7,129.8h-12.2v-7.6h12.2V129.8z"/>
	<path class="st0" d="M362,129.8h-12.2v-7.6H362V129.8z"/>
	<path class="st0" d="M373.3,129.8h-12.2v-7.6h12.2V129.8z"/>
	<path class="st0" d="M389.4,118.8c0,3-0.9,5.5-2.5,7.5c-1.9,2.3-4.5,3.5-7.8,3.5h-6.8v-7.6h5.1c2.7,0,4-1.9,4-5.6V104h8V118.8z
		 M389,139.3h-7.1v-6.6h7.1V139.3z"/>
	<path class="st0" d="M423.1,129.8h-28.6v-7.6h20.7c0-8-4.3-11.5-14.5-11.5V104c5,0,8.5,0.3,10.6,1.1c7.7,2.7,11.8,8.4,11.8,17
		V129.8z"/>
</g>
<g>
	<path class="st0" d="M11.1,166h15.2c3,0,5.8,0.5,8.4,1.5c2.5,1,4.7,2.3,6.6,4.1c1.8,1.7,3.3,3.8,4.3,6.1c1,2.4,1.5,4.9,1.5,7.6v0.1
		c0,2.7-0.5,5.3-1.5,7.7c-1,2.4-2.4,4.4-4.3,6.2c-1.8,1.7-4,3.1-6.6,4.1c-2.5,1-5.3,1.5-8.4,1.5H11.1V166z M26.3,197.1
		c1.7,0,3.3-0.3,4.8-0.8c1.4-0.6,2.7-1.4,3.7-2.4c1-1,1.8-2.3,2.4-3.7c0.6-1.4,0.9-3,0.9-4.7v-0.1c0-1.7-0.3-3.3-0.9-4.7
		c-0.6-1.4-1.4-2.7-2.4-3.7c-1-1-2.3-1.8-3.7-2.4c-1.4-0.6-3-0.9-4.8-0.9h-6.6v23.5H26.3z"/>
	<path class="st0" d="M53.2,166h8.6v38.9h-8.6V166z"/>
	<path class="st0" d="M88.5,205.5c-3,0-5.8-0.5-8.3-1.5c-2.5-1-4.7-2.4-6.4-4.2c-1.8-1.8-3.2-3.9-4.2-6.3c-1-2.4-1.5-5.1-1.5-8v-0.1
		c0-2.8,0.5-5.4,1.5-7.8c1-2.4,2.4-4.6,4.3-6.4c1.8-1.8,4-3.3,6.4-4.3c2.5-1.1,5.2-1.6,8.2-1.6c1.7,0,3.3,0.1,4.8,0.4
		c1.4,0.2,2.8,0.6,4,1c1.2,0.4,2.4,1,3.4,1.7c1.1,0.7,2.1,1.4,3.1,2.3l-5.4,6.5c-0.7-0.6-1.5-1.2-2.2-1.7c-0.7-0.5-1.5-0.9-2.3-1.2
		c-0.8-0.3-1.7-0.6-2.6-0.8c-0.9-0.2-1.9-0.3-3.1-0.3c-1.6,0-3,0.3-4.4,1c-1.4,0.7-2.5,1.5-3.6,2.6c-1,1.1-1.8,2.4-2.4,3.8
		c-0.6,1.5-0.9,3-0.9,4.7v0.1c0,1.8,0.3,3.4,0.9,4.9c0.6,1.5,1.4,2.8,2.4,3.9c1.1,1.1,2.3,2,3.7,2.6c1.4,0.6,3,0.9,4.8,0.9
		c3.2,0,5.9-0.8,8.1-2.4v-5.6h-8.6v-7.4h16.9v16.9c-2,1.7-4.4,3.2-7.1,4.4C95.2,204.9,92,205.5,88.5,205.5z"/>
	<path class="st0" d="M111.9,166h8.6v38.9h-8.6V166z"/>
	<path class="st0" d="M137.5,173.9h-11.8V166h32.2v7.9h-11.8v31h-8.6V173.9z"/>
	<path class="st0" d="M176,165.7h7.9l16.7,39.2h-9l-3.6-8.7h-16.5l-3.6,8.7h-8.7L176,165.7z M185,188.6l-5.2-12.6l-5.2,12.6H185z"/>
	<path class="st0" d="M204.8,166h8.6v31.2h19.4v7.7h-28V166z"/>
	<path class="st0" d="M251.6,166h15.2c3,0,5.8,0.5,8.4,1.5c2.5,1,4.7,2.3,6.6,4.1c1.8,1.7,3.3,3.8,4.3,6.1c1,2.4,1.5,4.9,1.5,7.6
		v0.1c0,2.7-0.5,5.3-1.5,7.7c-1,2.4-2.4,4.4-4.3,6.2c-1.8,1.7-4,3.1-6.6,4.1c-2.5,1-5.3,1.5-8.4,1.5h-15.2V166z M266.8,197.1
		c1.7,0,3.3-0.3,4.8-0.8c1.4-0.6,2.7-1.4,3.7-2.4c1-1,1.8-2.3,2.4-3.7c0.6-1.4,0.9-3,0.9-4.7v-0.1c0-1.7-0.3-3.3-0.9-4.7
		c-0.6-1.4-1.4-2.7-2.4-3.7c-1-1-2.3-1.8-3.7-2.4c-1.4-0.6-3-0.9-4.8-0.9h-6.6v23.5H266.8z"/>
	<path class="st0" d="M309.5,205.5c-5.2,0-9.3-1.4-12.3-4.3c-3-2.9-4.5-7.2-4.5-13V166h8.6v22c0,3.2,0.7,5.6,2.2,7.2
		c1.5,1.6,3.5,2.4,6.2,2.4c2.6,0,4.7-0.8,6.2-2.3c1.5-1.6,2.2-3.9,2.2-7V166h8.6v22c0,3-0.4,5.5-1.2,7.7c-0.8,2.2-1.9,4-3.4,5.5
		c-1.5,1.5-3.3,2.6-5.4,3.3C314.5,205.1,312.1,205.5,309.5,205.5z"/>
	<path class="st0" d="M333.5,166h18c4.5,0,7.9,1.1,10.2,3.4c1.8,1.8,2.7,4,2.7,6.6v0.1c0,1.1-0.1,2.1-0.4,2.9
		c-0.3,0.9-0.6,1.6-1.1,2.3c-0.5,0.7-1,1.3-1.6,1.8c-0.6,0.5-1.3,1-2,1.3c2.3,0.9,4,2,5.3,3.5c1.3,1.5,1.9,3.5,1.9,6.1v0.1
		c0,1.8-0.3,3.3-1,4.7c-0.7,1.3-1.7,2.4-2.9,3.3c-1.3,0.9-2.8,1.6-4.6,2c-1.8,0.4-3.8,0.7-6,0.7h-18.5V166z M349.8,181.7
		c1.9,0,3.4-0.3,4.5-1c1.1-0.6,1.7-1.7,1.7-3.1v-0.1c0-1.3-0.5-2.3-1.4-3c-1-0.7-2.4-1-4.2-1h-8.5v8.2H349.8z M352.1,197.4
		c1.9,0,3.4-0.3,4.4-1c1.1-0.7,1.6-1.8,1.6-3.2V193c0-1.3-0.5-2.3-1.5-3.1c-1-0.8-2.6-1.1-4.8-1.1h-9.9v8.6H352.1z"/>
	<path class="st0" d="M385.2,165.7h7.9l16.7,39.2h-9l-3.6-8.7h-16.5l-3.6,8.7h-8.7L385.2,165.7z M394.3,188.6l-5.2-12.6l-5.2,12.6
		H394.3z"/>
	<path class="st0" d="M414.4,166h8.6v38.9h-8.6V166z"/>
</g>
<g>
	<path class="st1" d="M491.2,186h-38.6v19.6h38.6h0c51.3,0,92.9-41.6,92.9-92.9s-41.6-92.9-92.9-92.9l0,0h-99.1v19.6h99.1l0,0
		c40.5,0,73.4,32.8,73.4,73.4S531.7,186,491.2,186L491.2,186z"/>
	<path class="st1" d="M491.2,58.6L491.2,58.6h-62.3v19.4h62.3l0,0c19.1,0,34.6,15.5,34.6,34.6c0,19.1-15.5,34.6-34.6,34.6l0,0h-19.4
		v-51h-19.4v70.5h19.4v0h19.4h0c29.8,0,54-24.2,54-54S521,58.6,491.2,58.6z"/>
</g>
</svg>
